<svg width="23" height="27" viewBox="0 0 23 27" fill="none" xmlns="http://www.w3.org/2000/svg">
<rect x="0.578369" y="9.31885" width="17.0737" height="17.0738" fill="#7595FD"/>
<path d="M8.33472 20.0265L8.63961 22.7339L10.6153 20.8558L13.9934 11.5872C13.1641 11.3799 12.4324 10.9653 11.8348 10.3921L8.33472 20.0265ZM18.5912 10.3921C17.9936 10.9653 17.2497 11.3799 16.4326 11.5872L19.8107 20.8558L21.7864 22.7339L22.1035 20.0265L18.5912 10.3921V10.3921ZM18.7985 7.61148C19.1644 5.70898 18.0668 4.02599 16.4326 3.44061V2.00154C16.4326 1.33078 15.8838 0.781982 15.213 0.781982C14.5422 0.781982 13.9934 1.33078 13.9934 2.00154V3.44061C12.5788 3.95282 11.5543 5.29433 11.5543 6.87975C11.5543 9.12373 13.5788 10.9043 15.896 10.4774C17.335 10.2091 18.518 9.05056 18.7985 7.61148V7.61148ZM15.213 8.0993C14.5422 8.0993 13.9934 7.5505 13.9934 6.87975C13.9934 6.209 14.5422 5.6602 15.213 5.6602C15.8838 5.6602 16.4326 6.209 16.4326 6.87975C16.4326 7.5505 15.8838 8.0993 15.213 8.0993Z" fill="#292E3D"/>
</svg>
