<svg width="26" height="18" viewBox="0 0 26 18" fill="none" xmlns="http://www.w3.org/2000/svg">
<rect x="0.22168" y="0.318848" width="17.0737" height="17.0738" fill="#7595FD"/>
<path d="M25.8323 5.19716C25.8323 4.52641 25.2835 3.97761 24.6128 3.97761H22.1737V6.41672H24.6128C25.2835 6.41672 25.8323 5.86792 25.8323 5.19716ZM24.6128 8.85582H22.1737V11.2949H24.6128C25.2835 11.2949 25.8323 10.7461 25.8323 10.0754C25.8323 9.40462 25.2835 8.85582 24.6128 8.85582ZM14.8563 5.19716H12.4172V10.0754H14.8563C14.8563 11.4169 15.9539 12.5145 17.2955 12.5145H20.9541V2.75806H17.2955C15.9539 2.75806 14.8563 3.85565 14.8563 5.19716Z" fill="white"/>
</svg>
