<svg width="80" height="17" viewBox="0 0 80 17" fill="none" xmlns="http://www.w3.org/2000/svg">
<path d="M14.7876 1.60985L14.107 4.52946H9.43127L6.75313 16.0981H2.9774L5.65553 4.52946H0.935862L1.61637 1.60985H14.7876ZM13.0671 16.0981L16.6891 0.468345H20.421L18.7746 7.62469L18.4014 8.15153C18.5916 7.53688 18.877 6.98808 19.2575 6.50514C19.638 6.02219 20.1136 5.63437 20.6844 5.34168C21.2552 5.04899 21.9064 4.90264 22.6381 4.90264C23.3699 4.90264 23.9918 5.07094 24.504 5.40754C25.0309 5.74413 25.3968 6.21976 25.6016 6.83441C25.8212 7.44907 25.8358 8.1808 25.6455 9.02961L23.9991 16.0981H20.2673L21.782 9.62231C21.9137 9.03693 21.8625 8.58325 21.6283 8.26129C21.3942 7.9247 21.0137 7.7564 20.4868 7.7564C20.0917 7.7564 19.7405 7.85152 19.4331 8.04177C19.1404 8.21739 18.8843 8.48813 18.6648 8.854C18.4599 9.20523 18.299 9.64427 18.1819 10.1711L16.7989 16.0981H13.0671ZM32.6345 16.2957C31.5515 16.2957 30.6003 16.0908 29.7807 15.6811C28.9612 15.2567 28.3246 14.6713 27.8709 13.9249C27.4172 13.1785 27.1904 12.3078 27.1904 11.3126C27.1904 10.0833 27.4392 8.99302 27.9368 8.04177C28.449 7.07589 29.1661 6.31488 30.0881 5.75877C31.0247 5.20265 32.1369 4.92459 33.4248 4.92459C34.4931 4.92459 35.4004 5.12948 36.1468 5.53925C36.9078 5.93438 37.4859 6.49782 37.881 7.22955C38.2762 7.96128 38.4737 8.82473 38.4737 9.81988C38.4737 10.0979 38.4591 10.3906 38.4298 10.698C38.4006 11.0053 38.342 11.3053 38.2542 11.598H29.6051V9.57841H35.8175L34.7858 10.1492C34.8443 9.94428 34.8809 9.76866 34.8956 9.62231C34.9102 9.47597 34.9175 9.33694 34.9175 9.20523C34.9175 8.82473 34.8516 8.51008 34.7199 8.26129C34.5882 8.0125 34.4053 7.82957 34.1711 7.71249C33.937 7.58078 33.6589 7.51493 33.337 7.51493C32.8101 7.51493 32.3711 7.63932 32.0198 7.88811C31.6832 8.1369 31.4125 8.46618 31.2076 8.87595C31.0027 9.27108 30.8564 9.7028 30.7686 10.1711C30.6954 10.6394 30.6588 11.0931 30.6588 11.5321C30.6588 12.0004 30.7466 12.3956 30.9222 12.7175C31.1125 13.0395 31.3613 13.2883 31.6686 13.4639C31.9906 13.6249 32.3638 13.7054 32.7882 13.7054C33.315 13.7054 33.7394 13.5883 34.0614 13.3541C34.3833 13.1054 34.6321 12.798 34.8077 12.4322L37.881 13.6395C37.6322 14.1956 37.2444 14.6713 36.7176 15.0664C36.2054 15.4615 35.598 15.7689 34.8956 15.9884C34.2077 16.1933 33.454 16.2957 32.6345 16.2957ZM40.8233 16.0981V1.60985H47.8699C49.6553 1.62448 50.9724 1.9684 51.8212 2.64159C52.67 3.30015 53.0944 4.25872 53.0944 5.5173C53.0944 6.33684 52.8529 7.04662 52.37 7.64664C51.8871 8.23202 51.148 8.60521 50.1529 8.76619V8.78814C51.2651 8.93449 52.0919 9.3223 52.6334 9.95159C53.1895 10.5662 53.4676 11.3126 53.4676 12.1907C53.4676 13.4346 53.0286 14.4005 52.1505 15.0884C51.2724 15.7615 49.9553 16.0981 48.1991 16.0981H40.8233ZM44.4673 13.442H47.5625C48.2504 13.442 48.7626 13.3029 49.0992 13.0249C49.4358 12.7468 49.6041 12.3444 49.6041 11.8175C49.6041 11.3053 49.4358 10.9175 49.0992 10.6541C48.7626 10.376 48.2504 10.237 47.5625 10.237H44.4673V13.442ZM44.4673 7.53688H47.2113C48.5577 7.53688 49.2309 7.01003 49.2309 5.95634C49.2309 4.90264 48.5577 4.37579 47.2113 4.37579H44.4673V7.53688ZM60.7906 4.90264C61.9468 4.90264 62.9566 5.12948 63.82 5.58315C64.6981 6.02219 65.3786 6.67343 65.8615 7.53688C66.3591 8.38569 66.6079 9.41011 66.6079 10.6102C66.6079 11.8102 66.3591 12.8419 65.8615 13.7054C65.3786 14.5542 64.6981 15.2054 63.82 15.6591C62.9566 16.0981 61.9468 16.3177 60.7906 16.3177C59.6638 16.3177 58.6613 16.0981 57.7832 15.6591C56.9051 15.2054 56.2173 14.5542 55.7197 13.7054C55.2368 12.8419 54.9953 11.8102 54.9953 10.6102C54.9953 9.41011 55.2368 8.38569 55.7197 7.53688C56.2173 6.67343 56.9051 6.02219 57.7832 5.58315C58.6613 5.12948 59.6638 4.90264 60.7906 4.90264ZM60.7906 7.55883C60.3662 7.55883 60.0004 7.66127 59.693 7.86616C59.3857 8.07104 59.1516 8.40032 58.9906 8.854C58.8296 9.30767 58.7491 9.89306 58.7491 10.6102C58.7491 11.3273 58.8296 11.9126 58.9906 12.3663C59.1516 12.8053 59.3857 13.1346 59.693 13.3541C60.0004 13.559 60.3662 13.6615 60.7906 13.6615C61.2297 13.6615 61.6029 13.559 61.9102 13.3541C62.2175 13.1346 62.4517 12.8053 62.6127 12.3663C62.7736 11.9126 62.8541 11.3273 62.8541 10.6102C62.8541 9.89306 62.7736 9.30767 62.6127 8.854C62.4517 8.40032 62.2175 8.07104 61.9102 7.86616C61.6029 7.66127 61.2297 7.55883 60.7906 7.55883ZM71.3339 5.12216L74.0121 10.0614L75.2414 9.95159L79.5659 16.0981H75.2853L72.5193 11.0931H71.2242L67.0313 5.12216H71.3339ZM79.4781 5.12216L75.3292 11.0492L73.9462 10.9614L71.0705 16.0981H66.8777L71.29 9.90769L72.5632 10.0833L75.2853 5.12216H79.4781Z" fill="#2947A9"/>
</svg>
